<svg width="22" height="22" viewBox="0 0 22 22" fill="none" xmlns="http://www.w3.org/2000/svg">
<g id="Group 48096808">
<path id="Vector" d="M21.7861 8.84565H20.9V8.8H11V13.2H17.2167C16.3097 15.7614 13.8727 17.6 11 17.6C7.35515 17.6 4.4 14.6448 4.4 11C4.4 7.35515 7.35515 4.4 11 4.4C12.6825 4.4 14.2131 5.0347 15.3786 6.07145L18.4899 2.9601C16.5253 1.12915 13.8974 0 11 0C4.92525 0 0 4.92525 0 11C0 17.0748 4.92525 22 11 22C17.0748 22 22 17.0748 22 11C22 10.2625 21.9241 9.5425 21.7861 8.84565Z" fill="#FFC107"/>
<path id="Vector_2" d="M1.26855 5.88005L4.8826 8.5305C5.8605 6.1094 8.2288 4.4 11.0003 4.4C12.6827 4.4 14.2134 5.0347 15.3788 6.07145L18.4902 2.9601C16.5256 1.12915 13.8977 0 11.0003 0C6.77515 0 3.11105 2.38535 1.26855 5.88005Z" fill="#FF3D00"/>
<path id="Vector_3" d="M10.9998 22C13.8411 22 16.4228 20.9127 18.3747 19.1444L14.9702 16.2635C13.8287 17.1317 12.4339 17.6012 10.9998 17.6C8.13868 17.6 5.70933 15.7757 4.79413 13.2297L1.20703 15.9935C3.02753 19.5558 6.72463 22 10.9998 22Z" fill="#4CAF50"/>
<path id="Vector_4" d="M21.786 8.8457H20.9V8.80005H11V13.2H17.2167C16.7828 14.4191 16.0013 15.4843 14.9688 16.2641L14.9704 16.263L18.375 19.1439C18.1341 19.3628 22 16.5 22 11C22 10.2625 21.9241 9.54255 21.786 8.8457Z" fill="#1976D2"/>
</g>
</svg>
